<?xml version="1.0" encoding="utf-8"?>
<svg version="1.1" id="Layer_1" xmlns="http://www.w3.org/2000/svg" xmlns:xlink="http://www.w3.org/1999/xlink" viewBox="0 0 610 200" xml:space="preserve">
<g>
	<path d="M290,48.4l0.5-1.5h4l11.1-39.3h-5.4l0.5-1.5h32.9l-2.8,11H329c0.2-1.1,0.3-2,0.3-2.9c0-4.7-2-6.6-10.5-6.6
		h-6.3l-5.1,18.1c7.7-0.1,9.2-0.8,11.9-6.6h1.8l-4.7,16.4h-1.8c0.1-1.1,0.2-2.2,0.2-3c0-4.1-1.1-4.6-8-5L301.3,47h5.6l-0.5,1.5H290z
		"/>
	<path d="M335.4,42.6c0,2.8,2.2,5.2,5.4,5.2c4.7,0,6.8-3.4,8.2-6.9c1.5-3.7,2.7-7.7,2.7-11.6c0-3.2-1.4-5.2-5-5.2
		c-4.5,0-7,3.4-8.4,6.9C337.4,33.1,335.4,40.4,335.4,42.6 M341.1,49.1c-7.3,0-11.1-5-11.1-9.2c0-8.5,8.2-17.1,17.2-17.1
		c6,0,10.4,4.7,10.4,10.1C357.5,40.1,349.7,49.1,341.1,49.1"/>
	<path d="M363.2,24.9l0.5-1.4h1.4c2,0,6.8-0.4,9.5-0.6l-1.7,5.8l0.2,0.1c2.4-3.4,7.2-5.8,10.5-5.8
		c3.5,0,6.2,1.2,6.2,5.3c0,1.9-5,17.3-5,17.8c0,1,1.1,1.3,2,1.3c3.3,0,5.6-5.3,6.6-7.6l1.3,0.5c-1.9,4.2-4.5,9.2-10.2,9.2
		c-2.4,0-4.5-1.1-4.5-3.4c0-3.8,5-16.5,5-18.6c0-2-1.7-2.4-3.2-2.4c-5.4,0-9.8,6.2-11.7,13.3l-2.9,10.4H362l6.8-23.6H363.2z"/>
	<path d="M404.1,43.1c0,2.7,2,4.7,4.9,4.7c3.3,0,6.1-2.3,8.8-9.7c0.9-2.3,2.6-7.2,2.6-9.7c0-2.5-1.5-4.3-4.5-4.3
		c-5.5,0-8.2,6.4-9.7,10.4C405.2,37,404.1,40.4,404.1,43.1 M431,39.3c-1.8,4.4-4.8,9.9-10.6,9.9c-2.4,0-4.1-1.8-4.2-3.9h-0.1
		c-1.8,2.3-5,3.9-8.2,3.9c-6,0-9.3-4.8-9.3-8.8c0-7.6,7.9-17.6,16.7-17.6c2.6,0,4.7,1,6.2,2.8l5.7-19.1h-5.9l0.5-1.4h2.7
		c5,0,6.7-0.2,8.4-0.3l-11.9,39.7c-0.1,0.6-0.2,0.9-0.2,1c0,0.8,1.1,1.5,1.8,1.5c3,0,5.9-6,6.9-8.1L431,39.3z"/>
	<path d="M439.7,43c0,2.7,1.6,4.9,4.7,4.9c1.8,0,5.6-1.3,8.2-7.7c1.3-3.2,3.1-8.3,3.1-11.7c0-2.6-1.6-4.4-4.5-4.4
		c-3.8,0-5.9,3.1-7.5,5.9C441.9,33.2,439.7,39.3,439.7,43 M463.5,23.4l-6.7,21.6c-0.6,1.6,0.6,2.1,1.4,2.1c2.4,0,6.2-5.4,7-7.9
		l1.3,0.4c-2.7,6.9-6.5,9.5-9.7,9.5c-2.7,0-4.9-1.6-5-4.1h-0.1c-1.8,2.5-5.1,4.1-8.2,4.1c-5.6,0-9.1-4-9.1-9.7
		c0-7.3,8.9-16.7,17-16.7c2.8,0,4.7,1.6,5.7,3.9h0.1l1.2-3.2H463.5z"/>
	<path d="M471.9,30.8l-1.4-0.6l4.7-7.3c3.4,1.1,10.8,2.6,13.8,2c-0.1-1,0.5-2,1.6-2c0.7,0,1.2,0.6,1.2,1.2
		c0,0.7-2.1,3.2-2.9,3.8l-16.8,15.1c3.7,0.1,10.7,3.1,12.7,3.1c1.1,0,1.8-0.6,1.8-1.3c0-1.3-3.4-0.3-3.4-2.7c0-1.2,1.2-1.8,2.4-1.8
		c1.9,0,2.7,1.8,2.7,3.3c0,4-3.8,5.6-7.6,5.6c-3.5,0-8.8-2.2-12.2-3c-0.1,0.9-0.1,2.8-1.6,2.8c-0.9,0-1.2-0.5-1.2-1.2
		c0-1.1,0.8-1.9,2.3-3.2L486,28.2l-0.1-0.1c-1,0.1-2.3,0.2-3.5,0.2c-2.8,0-5.7-0.3-8.2-1.1L471.9,30.8z"/>
	<path d="M504.5,10c0-1.7,1.4-3.1,3.3-3.1c1.9,0,3.3,1.4,3.3,3.1c0,1.8-1.4,3-3.3,3C505.9,13.1,504.5,11.8,504.5,10
		 M511.2,39.8c-2,5.5-5.3,9.4-10.6,9.4c-2.2,0-4.5-1-4.5-3.3c0-0.8,0.4-2.5,0.7-3.5l5.1-17.4h-5.6l0.5-1.4h1.4c2,0,6.8-0.4,9.5-0.6
		l-6.2,20.7c-0.2,0.8-0.6,1.6-0.6,2.3c0,0.8,1.1,1.2,2,1.2c2.9,0,5.5-4.2,7-7.6L511.2,39.8z"/>
	<path d="M518.2,42.6c0,2.8,2.2,5.2,5.4,5.2c4.7,0,6.8-3.4,8.2-6.9c1.5-3.7,2.7-7.7,2.7-11.6c0-3.2-1.4-5.2-5-5.2
		c-4.5,0-7,3.4-8.4,6.9C520.2,33.1,518.2,40.4,518.2,42.6 M523.8,49.1c-7.3,0-11.1-5-11.1-9.2c0-8.5,8.2-17.1,17.2-17.1
		c6,0,10.4,4.7,10.4,10.1C540.3,40.1,532.5,49.1,523.8,49.1"/>
	<path d="M546,24.9l0.5-1.4h1.3c2,0,6.8-0.4,9.5-0.6l-1.7,5.8l0.1,0.1c2.4-3.4,7.2-5.8,10.5-5.8
		c3.6,0,6.2,1.2,6.2,5.3c0,1.9-5,17.3-5,17.8c0,1,1.1,1.3,2,1.3c3.3,0,5.6-5.3,6.6-7.6l1.4,0.5c-1.9,4.2-4.5,9.2-10.2,9.2
		c-2.4,0-4.5-1.1-4.5-3.4c0-3.8,5-16.5,5-18.6c0-2-1.7-2.4-3.2-2.4c-5.4,0-9.8,6.2-11.7,13.3L550,48.4h-5.1l6.8-23.6H546z"/>
	<path d="M598.6,27.2c0-1.5-1.3-2.9-3-2.9c-5,0-7.9,7-9.1,10.6C594.9,34.9,598.6,31.3,598.6,27.2 M601.5,42
		c-2.6,4.3-5.6,7.2-11.3,7.2c-6.2,0-10.6-4.9-10.6-10.1c0-7.9,8.8-16.3,17.3-16.3c3.8,0,6.8,2.1,6.8,5.2c0,4-4.4,8.1-17.5,8.2
		c-0.5,1.8-1.1,3.6-1.1,5.5c0,3.1,1.6,5.9,5.4,5.9c5.1,0,7.3-2.5,9.8-6.3L601.5,42z"/>
	<path d="M331.1,98.2l-0.5,1.6h-4.2c-2.8,8.4-6.7,14.3-18.8,14.3c-9.2,0-16.3-7-16.3-15.2
		c0-15.3,13.6-28.9,26.1-28.9c3,0,6.7,1.3,9,3.2l2.8-1.8h1.3l-2.6,11.3l-2-0.2c0-8.5-4.1-11-9.1-11c-11.9,0-18.2,22.2-18.2,31.8
		c0,2.5,1.3,9.4,9.4,9.4c5.8,0,8.5-3.7,10-12.8h-5.9l0.5-1.6H331.1z"/>
	<path d="M344.3,74.8c0-1.7,1.4-3.1,3.3-3.1c1.9,0,3.3,1.4,3.3,3.1c0,1.8-1.4,3-3.3,3
		C345.7,77.8,344.3,76.6,344.3,74.8 M351,104.5c-2,5.5-5.3,9.4-10.6,9.4c-2.2,0-4.5-1-4.5-3.3c0-0.8,0.4-2.5,0.7-3.6l5.1-17.4h-5.6
		l0.5-1.4h1.3c2,0,6.8-0.4,9.5-0.6l-6.2,20.7c-0.2,0.7-0.6,1.6-0.6,2.3c0,0.8,1.1,1.2,2,1.2c2.9,0,5.5-4.2,7-7.6L351,104.5z"/>
	<path d="M356.5,107.4c0,2.8,2.2,5.3,5.4,5.3c4.7,0,6.8-3.4,8.2-7c1.5-3.7,2.7-7.7,2.7-11.6c0-3.1-1.4-5.2-5-5.2
		c-4.5,0-7,3.4-8.4,6.9C358.5,97.9,356.5,105.1,356.5,107.4 M362.2,113.9c-7.3,0-11.1-5-11.1-9.2c0-8.5,8.2-17.1,17.2-17.1
		c6,0,10.4,4.7,10.4,10.1C378.6,104.9,370.8,113.9,362.2,113.9"/>
	<path d="M382.2,97.2c1.7-4,4.8-9.7,10.2-9.7c2.3,0,4,1.1,4,3.6c0,1.3-5.9,18.1-5.9,19.2c0,1.8,1.4,2,2.8,2
		c7.7,0,13.4-13.4,13.4-18.1c0-2.7-3.6-1.7-3.6-4.6c0-1.2,1.1-2.1,2.4-2.1c2,0,3.2,1.7,3.2,4.4c0,5.9-5,22-16.7,22
		c-2.8,0-6-1.2-6-4.2c0-1.8,5.5-18.4,5.5-18.9c0-0.6-0.5-1.2-1.3-1.2c-2.3,0-5.5,5.7-6.4,7.6H382.2z"/>
	<path d="M418.9,107.8c0,2.7,1.6,4.9,4.7,4.9c1.8,0,5.6-1.3,8.2-7.7c1.3-3.1,3.1-8.3,3.1-11.7c0-2.6-1.6-4.4-4.5-4.4
		c-3.8,0-5.9,3.2-7.5,5.9C421.1,98,418.9,104.1,418.9,107.8 M442.7,88.2l-6.7,21.7c-0.6,1.7,0.6,2.1,1.3,2.1c2.4,0,6.3-5.4,7-7.9
		l1.3,0.4c-2.7,7-6.5,9.5-9.7,9.5c-2.7,0-4.9-1.6-5-4.1h-0.1c-1.8,2.5-5.1,4.1-8.2,4.1c-5.6,0-9.1-4-9.1-9.7c0-7.3,8.9-16.7,17-16.7
		c2.8,0,4.7,1.6,5.7,3.9h0.1l1.2-3.2H442.7z"/>
	<path d="M448.9,89.6l0.5-1.4h1.3c2,0,6.8-0.4,9.5-0.6l-1.7,5.8l0.1,0.1c2.4-3.4,7.2-5.8,10.5-5.8
		c3.6,0,6.3,1.1,6.3,5.2c0,1.9-5,17.3-5,17.8c0,1,1.1,1.2,2,1.2c3.3,0,5.6-5.3,6.6-7.6l1.3,0.5c-1.9,4.2-4.5,9.2-10.2,9.2
		c-2.4,0-4.5-1.1-4.5-3.4c0-3.8,5-16.5,5-18.5c0-2-1.7-2.4-3.2-2.4c-5.4,0-9.8,6.2-11.7,13.3l-2.9,10.3h-5.1l6.8-23.6H448.9z"/>
	<path d="M484.4,89.6l0.5-1.4h1.4c2,0,6.8-0.4,9.5-0.6l-1.7,5.8l0.1,0.1c2.4-3.4,7.2-5.8,10.5-5.8
		c3.5,0,6.2,1.1,6.2,5.2c0,1.9-5,17.3-5,17.8c0,1,1.1,1.2,2,1.2c3.3,0,5.6-5.3,6.6-7.6l1.3,0.5c-1.9,4.2-4.5,9.2-10.2,9.2
		c-2.4,0-4.5-1.1-4.5-3.4c0-3.8,5-16.5,5-18.5c0-2-1.7-2.4-3.2-2.4c-5.4,0-9.8,6.2-11.7,13.3l-2.9,10.3h-5.1l6.8-23.6H484.4z"/>
	<path d="M526.6,74.8c0-1.7,1.4-3.1,3.3-3.1c1.8,0,3.3,1.4,3.3,3.1c0,1.8-1.4,3-3.3,3
		C528,77.8,526.6,76.6,526.6,74.8 M533.2,104.5c-2,5.5-5.3,9.4-10.6,9.4c-2.2,0-4.5-1-4.5-3.3c0-0.8,0.4-2.5,0.7-3.6l5.1-17.4h-5.6
		l0.5-1.4h1.3c2,0,6.8-0.4,9.5-0.6l-6.2,20.7c-0.2,0.7-0.6,1.6-0.6,2.3c0,0.8,1.1,1.2,2,1.2c2.9,0,5.5-4.2,7-7.6L533.2,104.5z"/>
	<path d="M307.4,144.2h-0.1l-10.9,17.9h12.2L307.4,144.2z M316.4,176.9h4.5l-0.5,1.4h-16.1l0.5-1.4h4.8l-0.9-13.2
		h-13.3l-8,13.2h5.5l-0.5,1.4h-10.4l0.5-1.4h2.7l25.2-41.4h2.4L316.4,176.9z"/>
	<path d="M346.4,158.1c0-3.9-3-3.9-4.1-4c-6.6,0.1-7.5,11.7-7.5,12.6c0,2.5,2.1,3.8,4.4,3.8
		C344.4,170.5,346.4,162.2,346.4,158.1 M330.7,180.9c-3,1.8-4.5,3.8-4.5,7.4c0,0.8,0.5,5.5,7.9,5.5c4.7,0,13.9-1.7,13.9-7.8
		c0-3.3-2.9-3.7-5.5-4C339.3,181.7,333.5,181.6,330.7,180.9 M358.6,154.9c0,1.2-1.1,2.3-2.3,2.3c-1.1,0-1.8-0.5-2.6-1.1
		c-0.7,0.2,0,1-2.9,8c-1.8,4.6-5.8,7.8-11.9,7.8c-1.9,0-3.8-0.5-5.4-1.6c-1.5,0.1-4,1.7-4,3.3c0,2.6,4.6,2.6,10.5,3.1
		c7.4,0.6,10.6,1.8,10.6,7.1c0,9.1-10.1,11.8-17.8,11.8c-5,0-11-1.8-11-7.7c0-4.1,3.9-6,7-7.3v-0.1c-2.3-0.5-3.5-1.6-3.5-4.2
		c0-2.8,2.8-5.5,6.9-7.3c-1.2-1.2-2.1-3.4-2.1-5.2c0-6.6,6.2-11.1,12.5-11.1c3.9,0,6.7,2.4,8.2,5.6h0.1c0.8-2.5,2-6.2,5.2-6.2
		C357.6,152.2,358.6,153.4,358.6,154.9"/>
	<path d="M360.2,154.8l0.5-1.4h1.3c2,0,6.8-0.4,9.5-0.6l-1.7,5.7l0.1,0.1c2.4-3.4,7.2-5.8,10.5-5.8
		c3.6,0,6.3,1.1,6.3,5.2c0,1.9-5,17.3-5,17.8c0,1,1.1,1.3,2,1.3c3.3,0,5.6-5.3,6.6-7.6l1.4,0.5c-1.9,4.2-4.5,9.2-10.2,9.2
		c-2.4,0-4.5-1.1-4.5-3.4c0-3.8,5-16.5,5-18.6c0-2-1.7-2.4-3.2-2.4c-5.4,0-9.8,6.3-11.7,13.3l-2.9,10.4H359l6.8-23.6H360.2z"/>
	<path d="M412.8,157.1c0-1.5-1.3-2.9-3-2.9c-5,0-7.9,7-9.1,10.6C409.1,164.8,412.8,161.2,412.8,157.1 M415.7,171.9
		c-2.6,4.3-5.6,7.1-11.3,7.1c-6.3,0-10.7-4.9-10.7-10c0-7.9,8.8-16.3,17.3-16.3c3.8,0,6.8,2.2,6.8,5.2c0,4-4.4,8.1-17.5,8.2
		c-0.5,1.8-1.1,3.5-1.1,5.5c0,3.2,1.6,5.9,5.4,5.9c5.1,0,7.3-2.5,9.8-6.3L415.7,171.9z"/>
	<path d="M427.5,136.4l0.5-1.4h2.7c5,0,6.7-0.2,8.4-0.3l-11.6,38.7c-0.2,0.8-0.6,1.7-0.6,2.3c0,0.8,1.1,1.2,2,1.2
		c2.9,0,5.5-4.2,7.6-8.3l1.4,0.4c-2.6,6.1-6.2,10-11.2,10c-2.2,0-4.5-1-4.5-3.3c0-0.8,0.4-2.5,0.7-3.5l10.6-35.8H427.5z"/>
	<path d="M445.7,136.4l0.5-1.4h2.7c5,0,6.7-0.2,8.4-0.3l-11.6,38.7c-0.2,0.8-0.6,1.7-0.6,2.3c0,0.8,1.1,1.2,2,1.2
		c2.9,0,5.5-4.2,7.6-8.3l1.3,0.4c-2.6,6.1-6.2,10-11.2,10c-2.2,0-4.5-1-4.5-3.3c0-0.8,0.4-2.5,0.7-3.5l10.6-35.8H445.7z"/>
	<path d="M467.9,140c0-1.7,1.4-3.1,3.3-3.1c1.8,0,3.3,1.4,3.3,3.1c0,1.8-1.4,3-3.3,3
		C469.4,143,467.9,141.7,467.9,140 M474.6,169.7c-2,5.5-5.3,9.4-10.7,9.4c-2.2,0-4.5-1-4.5-3.3c0-0.8,0.4-2.5,0.7-3.5l5.1-17.4h-5.6
		l0.5-1.4h1.3c2,0,6.8-0.4,9.5-0.6l-6.2,20.7c-0.2,0.8-0.6,1.7-0.6,2.3c0,0.8,1.1,1.2,2,1.2c2.9,0,5.5-4.2,7-7.6L474.6,169.7z"/>
	<path d="M113.6,188.2c1.9,2.3,0.6,4.6-1.9,6c-17.2-0.6-30.8-0.9-46.4-0.9c-15.6,0-28.6,0.3-42.5,0.9
		c-2.6-1.7-2.6-4.9,0.6-6l9.1-1.1c14.6-1.4,17.9-6.9,27.9-34.2L93.8,48.1c9.1-24.5,9.7-32.8-7.5-34.2l-9.7-1.1
		c-1.9-2.3-0.6-4.6,1.9-6c17.2,0.6,30.8,0.8,46.4,0.8c15.6,0,28.5-0.3,42.5-0.8c2.6,1.7,2.6,4.9-0.6,6l-9.1,1.1
		c-14.6,1.4-18.2,6.9-27.9,34.2L96.5,152.8c-9.1,24.5-9.7,32.8,7.5,34.2L113.6,188.2z"/>
	<path d="M41.8,140c0,15.1,13.6,27.8,33.4,27.8c29,0,42.2-18.1,51-36.9c9.2-19.5,16.7-40.9,16.7-61.7
		c0-16.8-8.8-27.8-31.2-27.8C84,41.5,68.2,59.6,59.8,78C54.6,89.4,41.8,128,41.8,140 M77,174.6c-45.3,0-68.6-26.5-68.6-48.9
		c0-45.3,50.6-90.9,106.4-90.9c37.4,0,64.2,24.8,64.2,53.3C179,126.6,130.6,174.6,77,174.6"/>
	<line stroke-width="4.243" stroke-miterlimit="10" x1="234" y1="6.9" x2="234" y2="195"/>
</g>
</svg>
